<?xml version="1.0" encoding="utf-8"?>
<!-- Generator: Adobe Illustrator 23.0.3, SVG Export Plug-In . SVG Version: 6.00 Build 0)  -->
<svg version="1.2" baseProfile="tiny" id="g-ttekke-tl-img" xmlns="http://www.w3.org/2000/svg" xmlns:xlink="http://www.w3.org/1999/xlink"
	 x="0px" y="0px" viewBox="0 0 1024 200" xml:space="preserve">
<g>
	<g>
		<path d="M458.836,106.537c-10.891,0-21.336,0-31.925,0c0-17.012,0-33.781,0-50.693c0.623-0.236,1.263-0.528,1.932-0.724
			c27.05-7.937,54.1-15.872,81.16-23.775c1.131-0.33,2.354-0.489,3.534-0.49c21.519-0.029,43.039-0.008,64.558-0.049
			c1.506-0.003,2.47,0.383,3.346,1.704c4.817,7.264,9.744,14.456,14.631,21.673c0.309,0.457,0.599,0.927,1.018,1.577
			c-12.073,8.538-24.062,17.016-36.297,25.669c10.862,24.306,21.704,48.567,32.644,73.046c-0.803,0.399-1.47,0.769-2.167,1.072
			c-9.959,4.34-19.936,8.639-29.868,13.04c-1.393,0.617-2.429,0.583-3.775-0.121c-14.303-7.481-28.643-14.89-42.975-22.315
			c-0.761-0.394-1.544-0.744-2.636-1.267c0,8.259,0,16.208,0,24.31c-17.802,0-35.359,0-53.18,0
			C458.836,148.442,458.836,127.687,458.836,106.537z"/>
	</g>
</g>
<style type="text/css">
#g-ttekke-tl-img rect, #g-ttekke-tl-img circle, #g-ttekke-tl-img path, #g-ttekke-tl-img line, #g-ttekke-tl-img polyline { vector-effect: non-scaling-stroke; }
</style>
</svg>

