<?xml version="1.0" encoding="utf-8"?>
<!-- Generator: Adobe Illustrator 23.0.3, SVG Export Plug-In . SVG Version: 6.00 Build 0)  -->
<svg version="1.1" id="g-ttekke-tl-img" xmlns="http://www.w3.org/2000/svg" xmlns:xlink="http://www.w3.org/1999/xlink" x="0px"
	 y="0px" viewBox="0 0 170.2 138.4" style="enable-background:new 0 0 170.2 138.4;" xml:space="preserve">
<g>
	<g>
		<path d="M31.9,75.7c-10.9,0-21.3,0-31.9,0C0,58.7,0,42,0,25c0.6-0.2,1.3-0.5,1.9-0.7C29,16.4,56,8.4,83.1,0.5
			c1.1-0.3,2.4-0.5,3.5-0.5c21.5,0,43,0,64.6,0c1.5,0,2.5,0.4,3.3,1.7c4.8,7.3,9.7,14.5,14.6,21.7c0.3,0.5,0.6,0.9,1,1.6
			c-12.1,8.5-24.1,17-36.3,25.7c10.9,24.3,21.7,48.6,32.6,73c-0.8,0.4-1.5,0.8-2.2,1.1c-10,4.3-19.9,8.6-29.9,13
			c-1.4,0.6-2.4,0.6-3.8-0.1c-14.3-7.5-28.6-14.9-43-22.3c-0.8-0.4-1.5-0.7-2.6-1.3c0,8.3,0,16.2,0,24.3c-17.8,0-35.4,0-53.2,0
			C31.9,117.6,31.9,96.9,31.9,75.7z"/>
	</g>
</g>
</svg>
